<svg width="186" height="28" viewBox="0 0 186 28" fill="none" xmlns="http://www.w3.org/2000/svg">
<path d="M0.08 15.108V11.58L14.768 6.432V9.96L5.12 13.344L14.768 16.728V20.256L0.08 15.108ZM185.249 11.58V15.108L170.561 20.256V16.728L180.209 13.344L170.561 9.96V6.432L185.249 11.58Z" fill="#4616CC"/>
<path d="M16.1914 27.132L25.2274 0.131998H30.5194L21.3754 27.132H16.1914ZM61.9632 2.184H68.4792C68.4792 5.016 68.1912 7.704 67.6152 10.248C67.0632 12.792 66.3792 14.868 65.5632 16.476C64.7712 18.084 63.9672 19.488 63.1512 20.688C62.3352 21.864 61.6392 22.704 61.0632 23.208L60.2352 24H52.0632L49.3632 15.252C49.0272 16.38 48.4992 17.676 47.7792 19.14C47.0832 20.58 46.4592 21.744 45.9072 22.632L45.0792 24H37.2672L30.5352 2.184H41.9472L43.9992 16.368C44.3592 16.008 44.8032 15.36 45.3312 14.424C45.8832 13.464 46.3392 12.492 46.6992 11.508C47.0832 10.5 47.4312 9.168 47.7432 7.512C48.0792 5.832 48.2592 4.056 48.2832 2.184H56.0232L58.0752 16.368C59.7552 14.256 60.9192 11.304 61.5672 7.512C61.8312 5.832 61.9632 4.056 61.9632 2.184ZM87.0186 24L85.5786 20.364H76.3986L75.0306 24H69.9186L76.0026 2.184H88.8186L94.9026 24H87.0186ZM83.7426 15.684L80.8986 8.484L78.1626 15.684H83.7426ZM102.043 24L101.107 14.676L93.4747 2.184H102.331L105.571 9.636L108.775 2.184H117.631L109.999 14.676L109.063 24H102.043ZM138.775 21.624C136.615 23.448 133.699 24.36 130.027 24.36C126.355 24.36 123.427 23.448 121.243 21.624C119.083 19.8 118.003 16.932 118.003 13.02V2.184H127.579V14.784C127.579 17.592 127.939 19.296 128.659 19.896C128.995 20.208 129.451 20.364 130.027 20.364C130.603 20.364 131.059 20.22 131.395 19.932C131.755 19.62 132.007 19.152 132.151 18.528C132.367 17.568 132.475 16.32 132.475 14.784V2.184H142.051V13.02C142.051 16.932 140.959 19.8 138.775 21.624ZM156.38 13.092C157.484 13.092 158.36 12.756 159.008 12.084C159.656 11.412 159.98 10.596 159.98 9.636C159.98 8.652 159.668 7.92 159.044 7.44C158.444 6.936 157.664 6.684 156.704 6.684H155.264L154.652 13.092H156.38ZM158.648 17.7H154.184L153.572 24H146.552L144.392 2.184H160.448C162.968 2.184 165.008 2.832 166.568 4.128C168.152 5.4 168.944 7.236 168.944 9.636C168.944 11.1 168.644 12.372 168.044 13.452C167.468 14.532 166.676 15.372 165.668 15.972C163.724 17.124 161.384 17.7 158.648 17.7Z" fill="black"/>
</svg>
